<?xml version="1.0" encoding="UTF-8"?>
<svg width="166px" height="152px" viewBox="0 0 166 152" version="1.1" xmlns="http://www.w3.org/2000/svg" xmlns:xlink="http://www.w3.org/1999/xlink">
    <!-- Generator: Sketch 50.2 (55047) - http://www.bohemiancoding.com/sketch -->
    <title>Artboard 1</title>
    <desc>Created with Sketch.</desc>
    <defs>
        <polygon id="path-1" points="0.000119956416 0.412669836 166.41 0.412669836 166.41 151.999882 0.000119956416 151.999882"></polygon>
    </defs>
    <g id="Artboard-1" stroke="none" stroke-width="1" fill="none" fill-rule="evenodd">
        <g id="Group" transform="translate(0.000000, -1.000000)">
            <g id="Group-3" transform="translate(0.000000, 0.588000)">
                <mask id="mask-2" fill="white">
                    <use xlink:href="#path-1"></use>
                </mask>
                <g id="Clip-2"></g>
                <path d="M63.6829,75.8866 C63.6829,75.8866 34.7929,73.2246 57.8179,45.6116 C80.8419,17.9986 71.4469,6.5076 59.5869,1.3016 C47.7269,-3.9044 39.6229,15.2286 51.7299,20.5436 C51.7299,20.5436 49.8629,31.5116 40.7509,40.1836 C31.6409,48.8556 16.0359,87.0926 66.9259,89.9816 C66.9259,89.9816 62.1959,101.3436 50.1179,91.7566 C38.0389,82.1686 36.0589,73.0126 22.0529,71.7226 C8.0479,70.4326 -3.5091,75.9306 0.9849,88.4756 C5.4789,101.0196 18.1099,86.5636 22.0309,89.9996 C25.9519,93.4346 46.2569,112.9196 60.8229,109.0276 C75.3889,105.1346 78.6959,96.3006 78.6959,96.3006 C78.6959,96.3006 82.0969,108.0786 67.9519,111.0126 C53.8059,113.9476 43.7569,123.8226 53.5269,134.1106 C63.2959,144.3996 64.6859,123.0086 74.9169,123.7846 C85.1479,124.5616 90.4629,102.0366 90.4629,102.0366 C90.4629,102.0366 83.5129,138.7016 113.8019,139.9966 C113.8019,139.9966 115.2229,154.3346 128.6789,151.6696 C142.1349,149.0046 138.9379,129.6006 125.4289,126.5286 C111.9189,123.4556 100.7599,122.8426 103.0729,105.8576 C103.0729,105.8576 101.7939,134.1546 134.0349,120.5916 C134.0349,120.5916 148.6939,113.8826 148.6769,127.5906 C148.6609,141.2976 153.6329,142.3376 153.6329,142.3376 C153.6329,142.3376 165.3259,148.8976 166.3699,127.6416 C167.4139,106.3856 147.7929,102.9156 147.7929,102.9156 C147.7929,102.9156 133.9869,98.5696 120.0109,109.5786 C120.0109,109.5786 110.4349,112.5176 121.2549,96.9806 L65.4369,72.4796 L63.6829,75.8866 Z" id="Fill-1" fill="#00A69A" mask="url(#mask-2)"></path>
            </g>
            <path d="M120.72,98.2153 C122.939,98.3043 125.157,98.0503 127.291,97.4403 C136.269,94.8693 158.058,85.1913 150.156,52.8533 C141.45,17.2323 129.383,12.5873 126.667,11.9873 C126.211,11.8863 99.479,3.8753 68.876,32.9913 C66.389,35.3583 64.338,38.1623 62.89,41.2753 C59.474,48.6243 56.031,62.1033 67.555,75.0013 C67.555,75.0013 87.824,96.8913 120.72,98.2153" id="Fill-4" fill="#70C6A9"></path>
            <path d="M89.0882,39.9067 C83.8072,51.9367 89.2782,65.9697 101.3092,71.2507 C113.3392,76.5317 127.3732,71.0597 132.6532,59.0297 C137.9352,46.9997 132.4632,32.9657 120.4322,27.6857 C108.4012,22.4047 94.3682,27.8767 89.0882,39.9067" id="Fill-6" fill="#F6FBFC"></path>
            <path d="M99.2874,44.3837 C96.4784,50.7807 99.3894,58.2437 105.7864,61.0517 C112.1834,63.8607 119.6464,60.9497 122.4544,54.5527 C125.2634,48.1547 122.3524,40.6927 115.9554,37.8847 C109.5584,35.0757 102.0954,37.9857 99.2874,44.3837" id="Fill-8" fill="#1C2438"></path>
            <path d="M83.1712,77.1772 C83.1712,77.1772 76.9282,81.1882 75.6322,77.7712 C74.3362,74.3542 76.0002,72.6052 76.0002,72.6052 C76.0002,72.6052 70.3312,72.5432 69.5162,70.0752 C68.7002,67.6072 76.5042,63.6482 76.5042,63.6482 C76.5042,63.6482 75.8332,71.4242 83.1712,77.1772" id="Fill-10" fill="#FEFBFC"></path>
            <path d="M86.0149,78.5244 C86.0149,78.5244 75.8659,66.4904 77.4829,59.0744 C77.4829,59.0744 72.1049,73.2564 86.0149,78.5244" id="Fill-12" fill="#1C2438"></path>
        </g>
    </g>
</svg>