<?xml version="1.0" encoding="UTF-8"?>
<svg width="157px" height="92px" viewBox="0 0 157 92" version="1.1" xmlns="http://www.w3.org/2000/svg" xmlns:xlink="http://www.w3.org/1999/xlink">
    <!-- Generator: Sketch 50.2 (55047) - http://www.bohemiancoding.com/sketch -->
    <title>Artboard 1</title>
    <desc>Created with Sketch.</desc>
    <defs>
        <polygon id="path-1" points="0.0001 0.202 157.223 0.202 157.223 92 0.0001 92"></polygon>
    </defs>
    <g id="Artboard-1" stroke="none" stroke-width="1" fill="none" fill-rule="evenodd">
        <g id="Group-3" transform="translate(0.000000, -0.202300)">
            <mask id="mask-2" fill="white">
                <use xlink:href="#path-1"></use>
            </mask>
            <g id="Clip-2"></g>
            <path d="M0.0001,46.101 C0.0001,20.756 19.8851,0.202 44.4161,0.202 C44.9861,0.202 45.5571,0.219 46.1271,0.251 L111.0961,0.251 C111.6671,0.219 112.2371,0.202 112.8081,0.202 C137.3381,0.202 157.2231,20.756 157.2231,46.101 C157.2231,71.446 137.3381,92 112.8081,92 C112.2371,92 111.6671,91.984 111.0961,91.951 L46.1271,91.951 C45.5571,91.984 44.9861,92 44.4161,92 C19.8851,92 0.0001,71.446 0.0001,46.101" id="Fill-1" fill="#221D5B" mask="url(#mask-2)"></path>
        </g>
        <path d="M112.1539,46.626 C112.1539,61.495 103.3679,74.304 90.7089,80.169 C94.9719,81.885 99.6239,82.839 104.5009,82.839 C124.9109,82.839 141.4579,66.293 141.4579,45.883 C141.4579,25.472 124.9109,8.926 104.5009,8.926 C98.9599,8.926 93.7069,10.154 88.9889,12.34 C102.5659,17.807 112.1539,31.093 112.1539,46.626" id="Fill-4" fill="#DBDADA"></path>
        <path d="M113.5236,69.2271 C113.5236,67.0011 115.3276,65.1971 117.5536,65.1971 C119.7796,65.1971 121.5836,67.0011 121.5836,69.2271 C121.5836,71.4531 119.7796,73.2571 117.5536,73.2571 C115.3276,73.2571 113.5236,71.4531 113.5236,69.2271" id="Fill-6" fill="#B2B2B2"></path>
        <path d="M111.1193,32.8079 C111.1193,30.5819 112.9233,28.7779 115.1493,28.7779 C117.3753,28.7779 119.1793,30.5819 119.1793,32.8079 C119.1793,35.0339 117.3753,36.8379 115.1493,36.8379 C112.9233,36.8379 111.1193,35.0339 111.1193,32.8079" id="Fill-8" fill="#B2B2B2"></path>
        <path d="M117.2062,58.4661 C117.2062,57.2551 118.1872,56.2741 119.3982,56.2741 C120.6092,56.2741 121.5912,57.2551 121.5912,58.4661 C121.5912,59.6771 120.6092,60.6581 119.3982,60.6581 C118.1872,60.6581 117.2062,59.6771 117.2062,58.4661" id="Fill-10" fill="#B2B2B2"></path>
        <path d="M125.3234,44.2302 C125.3234,41.3062 127.6944,38.9352 130.6174,38.9352 C133.5424,38.9352 135.9124,41.3062 135.9124,44.2302 C135.9124,47.1542 133.5424,49.5252 130.6174,49.5252 C127.6944,49.5252 125.3234,47.1542 125.3234,44.2302" id="Fill-12" fill="#B2B2B2"></path>
        <path d="M104.7174,19.2253 C104.7174,18.0173 105.6964,17.0383 106.9044,17.0383 C108.1124,17.0383 109.0914,18.0173 109.0914,19.2253 C109.0914,20.4333 108.1124,21.4123 106.9044,21.4123 C105.6964,21.4123 104.7174,20.4333 104.7174,19.2253" id="Fill-14" fill="#B2B2B2"></path>
    </g>
</svg>