<?xml version="1.0" encoding="UTF-8"?>
<svg width="106px" height="105px" viewBox="0 0 106 105" version="1.1" xmlns="http://www.w3.org/2000/svg" xmlns:xlink="http://www.w3.org/1999/xlink">
    <!-- Generator: Sketch 50.2 (55047) - http://www.bohemiancoding.com/sketch -->
    <title>Artboard 1</title>
    <desc>Created with Sketch.</desc>
    <defs>
        <polygon id="path-1" points="4.48520298e-05 0.810256503 106.296 0.810256503 106.296 105.99978 4.48520298e-05 105.99978"></polygon>
    </defs>
    <g id="Artboard-1" stroke="none" stroke-width="1" fill="none" fill-rule="evenodd">
        <g id="Group-3" transform="translate(0.000000, -0.810000)">
            <mask id="mask-2" fill="white">
                <use xlink:href="#path-1"></use>
            </mask>
            <g id="Clip-2"></g>
            <path d="M30.5351,100.6943 C3.9791,87.9963 -7.4239,56.5303 5.0641,30.4123 C17.5531,4.2953 49.2051,-6.5827 75.7611,6.1153 C102.3171,18.8133 113.7211,50.2803 101.2321,76.3973 C88.7431,102.5143 57.0911,113.3933 30.5351,100.6943" id="Fill-1" fill="#6FC6AD" mask="url(#mask-2)"></path>
        </g>
        <path d="M106.063,50.4018 C106.063,50.4018 98.677,58.0768 93.044,55.8708 C87.411,53.6638 82.144,46.0298 77.544,49.4328 C72.944,52.8368 65.958,44.1358 70.544,36.0968 C75.131,28.0588 82.41,20.0898 72.461,20.6918 C62.513,21.2948 58.167,43.3348 52.261,42.2148 C46.355,41.0968 43.754,24.2608 37.435,26.5988 C31.115,28.9368 18.637,15.6618 26.759,13.6988 C34.881,11.7358 51.698,19.0468 53.891,14.9788 C56.083,10.9108 75.761,5.3048 75.761,5.3048 C75.761,5.3048 103.813,16.5348 106.063,50.4018" id="Fill-4" fill="#199947"></path>
        <path d="M33.0532,46.7163 C33.0532,46.7163 25.2682,51.1093 20.0272,47.8813 C14.7852,44.6533 8.9552,38.4403 8.9042,42.3823 C8.8522,46.3253 10.8122,54.1143 18.4842,57.2423 C26.1572,60.3703 21.3652,63.4893 26.4222,65.1863 C31.4782,66.8823 30.7862,71.7813 38.4762,75.6393 C46.1672,79.4963 42.9402,92.3813 47.9352,94.5893 C52.9302,96.7973 61.9642,104.3633 61.9642,104.3633 C61.9642,104.3633 84.4882,102.5103 98.2822,81.3333 C98.2822,81.3333 90.5132,73.0613 86.4682,76.2793 C82.4222,79.4993 80.9192,85.5023 76.5672,83.6453 C72.2152,81.7883 73.5232,79.0533 72.8672,74.7063 C72.2122,70.3603 60.0302,70.5843 58.4472,65.7943 C56.8652,61.0043 55.9492,61.0143 50.2222,59.1723 C44.4962,57.3303 41.9402,43.1353 33.0532,46.7163" id="Fill-6" fill="#199947"></path>
    </g>
</svg>