<?xml version="1.0" encoding="UTF-8"?>
<svg width="96px" height="98px" viewBox="0 0 96 98" version="1.1" xmlns="http://www.w3.org/2000/svg" xmlns:xlink="http://www.w3.org/1999/xlink">
    <!-- Generator: Sketch 50.2 (55047) - http://www.bohemiancoding.com/sketch -->
    <title>Artboard 1</title>
    <desc>Created with Sketch.</desc>
    <defs>
        <polygon id="path-1" points="0 0.9498 40.0814908 0.9498 40.0814908 82.6484427 0 82.6484427"></polygon>
    </defs>
    <g id="Artboard-1" stroke="none" stroke-width="1" fill="none" fill-rule="evenodd">
        <path d="M96.4405,49.0172 C96.4405,76.0882 74.8575,98.0342 48.2325,98.0342 C21.6085,98.0342 0.0245,76.0882 0.0245,49.0172 C0.0245,21.9452 21.6085,0.0002 48.2325,0.0002 C74.8575,0.0002 96.4405,21.9452 96.4405,49.0172" id="Fill-1" fill="#6FC6AD"></path>
        <g id="Group-5" transform="translate(0.000000, 5.034200)">
            <mask id="mask-2" fill="white">
                <use xlink:href="#path-1"></use>
            </mask>
            <g id="Clip-4"></g>
            <path d="M25.4197,0.9498 C25.4197,0.9498 34.7177,4.0328 35.1217,9.5818 C35.5267,15.1308 31.2817,22.5298 35.9307,24.9958 C40.5797,27.4628 36.1327,36.7108 27.6427,36.0948 C19.1537,35.4778 9.6537,32.6008 14.1007,40.6158 C18.5477,48.6318 38.5577,43.4928 39.9727,48.8368 C41.3877,54.1798 28.4517,63.0178 32.8987,67.3338 C37.3457,71.6498 31.2817,87.2698 26.4307,81.3098 C21.5797,75.3498 20.9727,58.4968 16.7277,58.2908 C12.4837,58.0858 0.0247,43.9828 0.0247,43.9828 C0.0247,43.9828 -1.7873,16.2538 25.4197,0.9498" id="Fill-3" fill="#199947" mask="url(#mask-2)"></path>
        </g>
        <path d="M51.3282,68.0221 C51.3282,68.0221 58.0612,72.7381 57.4632,78.3681 C56.8642,83.9971 54.0212,91.2991 57.3132,89.7781 C60.6052,88.2561 66.2912,83.5401 65.8422,75.9331 C65.3932,68.3261 69.8812,71.0651 69.2832,66.1961 C68.6852,61.3281 73.0242,59.9591 73.1732,52.0471 C73.3232,44.1361 85.2932,41.7021 85.1432,36.6821 C84.9942,31.6611 87.6872,21.1631 87.6872,21.1631 C87.6872,21.1631 77.2132,3.2111 54.1712,0.1681 C54.1712,0.1681 50.3892,9.8961 54.6652,11.9751 C58.9412,14.0541 64.5182,12.9201 64.7042,17.2681 C64.8902,21.6151 62.1012,21.6151 58.7552,23.8831 C55.4092,26.1521 60.4282,36.1701 57.0822,39.3831 C53.7352,42.5971 54.1072,43.3531 54.8512,48.8351 C55.5952,54.3161 44.8302,62.0691 51.3282,68.0221" id="Fill-6" fill="#199947"></path>
    </g>
</svg>