<?xml version="1.0" encoding="UTF-8"?>
<svg width="52px" height="74px" viewBox="0 0 52 74" version="1.1" xmlns="http://www.w3.org/2000/svg" xmlns:xlink="http://www.w3.org/1999/xlink">
    <!-- Generator: Sketch 50.2 (55047) - http://www.bohemiancoding.com/sketch -->
    <title>Artboard 1</title>
    <desc>Created with Sketch.</desc>
    <defs>
        <polygon id="path-1" points="0 0.087 52.468 0.087 52.468 73.9999 0 73.9999"></polygon>
    </defs>
    <g id="Artboard-1" stroke="none" stroke-width="1" fill="none" fill-rule="evenodd">
        <g id="Group-3" transform="translate(0.000000, -0.087100)">
            <mask id="mask-2" fill="white">
                <use xlink:href="#path-1"></use>
            </mask>
            <g id="Clip-2"></g>
            <path d="M23.1646,37.7869 C23.1646,52.6559 14.3786,65.4649 1.7196,71.3299 C5.9826,73.0459 10.6346,73.9999 15.5116,73.9999 C35.9216,73.9999 52.4686,57.4539 52.4686,37.0439 C52.4686,16.6329 35.9216,0.0869 15.5116,0.0869 C9.9706,0.0869 4.7176,1.3149 -0.0004,3.5009 C13.5766,8.9679 23.1646,22.2539 23.1646,37.7869" id="Fill-1" fill="#DBDADA" mask="url(#mask-2)"></path>
        </g>
        <path d="M24.5342,60.3008 C24.5342,58.0748 26.3382,56.2708 28.5642,56.2708 C30.7902,56.2708 32.5942,58.0748 32.5942,60.3008 C32.5942,62.5268 30.7902,64.3308 28.5642,64.3308 C26.3382,64.3308 24.5342,62.5268 24.5342,60.3008" id="Fill-4" fill="#B2B2B2"></path>
        <path d="M22.1299,23.8816 C22.1299,21.6556 23.9339,19.8516 26.1599,19.8516 C28.3859,19.8516 30.1899,21.6556 30.1899,23.8816 C30.1899,26.1076 28.3859,27.9116 26.1599,27.9116 C23.9339,27.9116 22.1299,26.1076 22.1299,23.8816" id="Fill-6" fill="#B2B2B2"></path>
        <path d="M28.2168,49.5399 C28.2168,48.3289 29.1978,47.3479 30.4088,47.3479 C31.6198,47.3479 32.6018,48.3289 32.6018,49.5399 C32.6018,50.7509 31.6198,51.7319 30.4088,51.7319 C29.1978,51.7319 28.2168,50.7509 28.2168,49.5399" id="Fill-8" fill="#B2B2B2"></path>
        <path d="M36.334,35.304 C36.334,32.38 38.705,30.009 41.628,30.009 C44.553,30.009 46.923,32.38 46.923,35.304 C46.923,38.228 44.553,40.599 41.628,40.599 C38.705,40.599 36.334,38.228 36.334,35.304" id="Fill-10" fill="#B2B2B2"></path>
        <path d="M15.7281,10.2991 C15.7281,9.0911 16.7071,8.1121 17.9151,8.1121 C19.1231,8.1121 20.1021,9.0911 20.1021,10.2991 C20.1021,11.5071 19.1231,12.4861 17.9151,12.4861 C16.7071,12.4861 15.7281,11.5071 15.7281,10.2991" id="Fill-12" fill="#B2B2B2"></path>
    </g>
</svg>