<?xml version="1.0" encoding="UTF-8"?>
<svg width="165px" height="164px" viewBox="0 0 165 164" version="1.1" xmlns="http://www.w3.org/2000/svg" xmlns:xlink="http://www.w3.org/1999/xlink">
    <!-- Generator: Sketch 50.2 (55047) - http://www.bohemiancoding.com/sketch -->
    <title>Artboard 1</title>
    <desc>Created with Sketch.</desc>
    <defs></defs>
    <g id="Artboard-1" stroke="none" stroke-width="1" fill="none" fill-rule="evenodd">
        <path d="M163.5636,82.0095 C163.5636,126.4095 127.3096,162.4055 82.5886,162.4055 C37.8676,162.4055 1.6136,126.4095 1.6136,82.0095 C1.6136,37.6085 37.8676,1.6135 82.5886,1.6135 C127.3096,1.6135 163.5636,37.6085 163.5636,82.0095" id="Fill-1" fill="#F27443"></path>
        <path d="M163.5636,82.0095 C163.5636,126.4095 127.3096,162.4055 82.5886,162.4055 C37.8676,162.4055 1.6136,126.4095 1.6136,82.0095 C1.6136,37.6085 37.8676,1.6135 82.5886,1.6135 C127.3096,1.6135 163.5636,37.6085 163.5636,82.0095 Z" id="Stroke-3" stroke="#EE4136" stroke-width="3.227"></path>
        <path d="M30.6823,20.7859 C39.3593,15.2309 49.3563,11.3889 60.0703,12.4879 C68.8353,13.3879 69.2693,16.6899 83.2713,19.6649 C91.4073,21.3919 102.1303,23.5389 114.2053,19.6649 C119.4603,17.9779 123.4853,15.6289 126.1373,13.8339" id="Stroke-5" stroke="#EE4136" stroke-width="1.936"></path>
        <path d="M32.6007,144.281 C42.4147,138.726 53.7237,134.884 65.8427,135.983 C75.7577,136.883 76.2487,140.185 92.0867,143.16 C101.2887,144.887 113.4197,147.034 127.0787,143.16 C133.0217,141.473 137.5747,139.125 140.5747,137.329" id="Stroke-7" stroke="#EE4136" stroke-width="1.936"></path>
        <path d="M11.8522,43.0202 C24.2642,47.8602 32.8932,47.0062 38.5702,45.2232 C44.7642,43.2772 45.8532,40.7242 53.1692,38.8882 C63.2082,36.3682 71.9322,38.4712 75.7552,39.4392 C87.8232,42.4922 87.4272,46.9492 95.8632,47.9782 C105.6912,49.1762 109.6352,43.5412 121.7552,40.5412 C128.4862,38.8742 138.4462,37.8452 151.7792,41.3672" id="Stroke-9" stroke="#EE4136" stroke-width="1.936"></path>
        <path d="M11.0255,118.4919 C23.7315,123.3319 32.5635,122.4789 38.3755,120.6959 C44.7155,118.7499 45.8305,116.1969 53.3185,114.3599 C63.5955,111.8409 72.5245,113.9439 76.4395,114.9119 C88.7915,117.9649 88.3855,122.4219 97.0215,123.4499 C107.0825,124.6479 111.1185,119.0129 123.5255,116.0129 C130.4155,114.3459 140.6105,113.3179 154.2575,116.8399" id="Stroke-11" stroke="#EE4136" stroke-width="1.936"></path>
        <path d="M3.5885,67.5349 C17.5885,72.3749 27.3215,71.5219 33.7255,69.7379 C40.7125,67.7929 41.9405,65.2389 50.1925,63.4029 C61.5165,60.8829 71.3555,62.9859 75.6695,63.9539 C89.2795,67.0069 88.8335,71.4649 98.3495,72.4929 C109.4355,73.6909 113.8835,68.0559 127.5545,65.0559 C135.1465,63.3889 146.3805,62.3599 161.4195,65.8819" id="Stroke-13" stroke="#EE4136" stroke-width="1.936"></path>
        <path d="M1.9362,92.0495 C16.1802,96.8895 26.0832,96.0365 32.5992,94.2525 C39.7072,92.3075 40.9572,89.7535 49.3532,87.9175 C60.8742,85.3975 70.8862,87.5015 75.2742,88.4685 C89.1232,91.5215 88.6682,95.9795 98.3502,97.0075 C109.6302,98.2055 114.1552,92.5705 128.0652,89.5705 C135.7902,87.9035 147.2202,86.8745 162.5212,90.3965" id="Stroke-15" stroke="#EE4136" stroke-width="1.936"></path>
    </g>
</svg>