<?xml version="1.0" encoding="UTF-8"?>
<svg width="409px" height="195px" viewBox="0 0 409 195" version="1.1" xmlns="http://www.w3.org/2000/svg" xmlns:xlink="http://www.w3.org/1999/xlink">
    <!-- Generator: Sketch 50.2 (55047) - http://www.bohemiancoding.com/sketch -->
    <title>Artboard 1</title>
    <desc>Created with Sketch.</desc>
    <defs>
        <polygon id="path-1" points="0 0.902195164 408.5 0.902195164 408.5 179.999805 0 179.999805"></polygon>
    </defs>
    <g id="Artboard-1" stroke="none" stroke-width="1" fill="none" fill-rule="evenodd">
        <g id="Group-3" transform="translate(0.000000, 15.208000)">
            <mask id="mask-2" fill="white">
                <use xlink:href="#path-1"></use>
            </mask>
            <g id="Clip-2"></g>
            <path d="M407.665,164.5485 C397.552,192.3115 298.282,181.6425 185.939,140.7195 C73.596,99.7975 -9.278,44.1165 0.835,16.3535 C10.949,-11.4095 110.219,-0.7405 222.561,40.1825 C334.904,81.1055 417.778,136.7855 407.665,164.5485" id="Fill-1" fill="#02A0C3" mask="url(#mask-2)"></path>
        </g>
        <path d="M305.3432,88.1471 C305.3432,136.8291 262.1522,176.2941 208.8722,176.2941 C155.5932,176.2941 112.4022,136.8291 112.4022,88.1471 C112.4022,39.4651 155.5932,0.0001 208.8722,0.0001 C262.1522,0.0001 305.3432,39.4651 305.3432,88.1471" id="Fill-4" fill="#02A0C3"></path>
        <path d="M211.7905,84.32 L209.5825,83.494 C203.6585,81.277 200.6255,74.615 202.8435,68.691 L211.1075,46.61 C213.3255,40.686 219.9865,37.653 225.9115,39.87 L228.1185,40.696 C234.0425,42.914 237.0765,49.575 234.8585,55.5 L226.5935,77.58 C224.3765,83.505 217.7145,86.538 211.7905,84.32" id="Fill-6" fill="#F6F6F7"></path>
        <path d="M261.5605,93.133 L259.4665,93.133 C253.8485,93.133 249.2505,88.536 249.2505,82.917 L249.2505,61.975 C249.2505,56.357 253.8485,51.759 259.4665,51.759 L261.5605,51.759 C267.1795,51.759 271.7765,56.357 271.7765,61.975 L271.7765,82.917 C271.7765,88.536 267.1795,93.133 261.5605,93.133" id="Fill-8" fill="#F6F6F7"></path>
        <path d="M292.0029,93.8214 C288.4819,94.5774 284.9819,92.3154 284.2269,88.7944 L279.1889,65.3354 C278.4329,61.8144 280.6949,58.3154 284.2159,57.5584 C287.7369,56.8024 291.2369,59.0654 291.9929,62.5864 L297.0299,86.0454 C297.7859,89.5664 295.5239,93.0654 292.0029,93.8214" id="Fill-10" fill="#F6F6F7"></path>
        <path d="M170.8427,58.8478 L172.5367,60.0778 C177.0827,63.3798 183.5037,62.3628 186.8057,57.8168 L199.1127,40.8728 C202.4147,36.3268 201.3967,29.9058 196.8507,26.6028 L195.1567,25.3728 C190.6107,22.0708 184.1897,23.0888 180.8877,27.6348 L168.5807,44.5778 C165.2787,49.1248 166.2967,55.5458 170.8427,58.8478" id="Fill-12" fill="#F6F6F7"></path>
        <path d="M145.8066,41.5143 C148.2116,44.1953 152.3716,44.4213 155.0536,42.0173 L172.9156,25.9973 C175.5966,23.5933 175.8226,19.4313 173.4176,16.7503 C171.0136,14.0703 166.8526,13.8433 164.1716,16.2483 L146.3096,32.2683 C143.6286,34.6723 143.4026,38.8333 145.8066,41.5143" id="Fill-14" fill="#F6F6F7"></path>
    </g>
</svg>