<?xml version="1.0" encoding="UTF-8"?>
<svg width="224px" height="223px" viewBox="0 0 224 223" version="1.1" xmlns="http://www.w3.org/2000/svg" xmlns:xlink="http://www.w3.org/1999/xlink">
    <!-- Generator: Sketch 50.2 (55047) - http://www.bohemiancoding.com/sketch -->
    <title>Artboard 1</title>
    <desc>Created with Sketch.</desc>
    <defs>
        <polygon id="path-1" points="0 0.992304947 223.906 0.992304947 223.906 224 0 224"></polygon>
    </defs>
    <g id="Artboard-1" stroke="none" stroke-width="1" fill="none" fill-rule="evenodd">
        <path d="M114.9298,187.6833 L48.8968,150.0993 C42.9208,146.6973 40.8148,139.0253 44.2158,133.0493 L89.0028,54.3633 C92.4038,48.3873 100.0758,46.2803 106.0518,49.6823 L172.0848,87.2663 C178.0608,90.6673 180.1668,98.3403 176.7658,104.3163 L131.9788,183.0023 C128.5768,188.9783 120.9058,191.0843 114.9298,187.6833" id="Fill-1" fill="#00ABC8"></path>
        <path d="M187.4855,70.6707 C175.6685,90.2057 149.1465,95.7937 128.2475,83.1507 C107.3485,70.5087 99.9865,44.4237 111.8025,24.8887 C123.6205,5.3537 150.1415,-0.2333 171.0415,12.4087 C191.9395,25.0517 199.3015,51.1357 187.4855,70.6707" id="Fill-3" fill="#FEFEFE"></path>
        <path d="M151.5529,76.3538 L124.6149,62.1808 C117.0349,58.1928 114.0969,48.7288 118.0839,41.1488 L126.9069,24.3808 C130.8949,16.8008 140.3589,13.8628 147.9379,17.8508 L174.8769,32.0238 C182.4559,36.0118 185.3949,45.4758 181.4069,53.0558 L172.5839,69.8238 C168.5969,77.4028 159.1329,80.3418 151.5529,76.3538" id="Fill-5" fill="#078EC8"></path>
        <path d="M163.2941,59.8811 L131.4311,43.1171 C125.2881,39.8851 122.9061,32.2141 126.1391,26.0721 L128.3541,21.8621 C131.5851,15.7191 139.2561,13.3381 145.3981,16.5691 L177.2611,33.3341 C183.4041,36.5661 185.7851,44.2361 182.5541,50.3791 L180.3391,54.5891 C177.1071,60.7321 169.4371,63.1131 163.2941,59.8811" id="Fill-7" fill="#00ABC8"></path>
        <path d="M102.1007,39.8337 C98.9677,38.1847 97.7527,34.2727 99.4017,31.1387 L106.4197,17.7997 C108.0687,14.6667 111.9807,13.4517 115.1147,15.0997 C118.2467,16.7487 119.4617,20.6617 117.8137,23.7947 L110.7947,37.1337 C109.1467,40.2677 105.2347,41.4817 102.1007,39.8337" id="Fill-9" fill="#00A69A"></path>
        <path d="M182.7668,82.8118 C179.6328,81.1638 178.4178,77.2508 180.0668,74.1178 L187.0848,60.7778 C188.7338,57.6448 192.6468,56.4298 195.7798,58.0788 C198.9128,59.7268 200.1278,63.6398 198.4798,66.7728 L191.4608,80.1118 C189.8128,83.2458 185.8998,84.4608 182.7668,82.8118" id="Fill-11" fill="#00A69A"></path>
        <g id="Group-15" transform="translate(0.000000, -0.992000)">
            <mask id="mask-2" fill="white">
                <use xlink:href="#path-1"></use>
            </mask>
            <g id="Clip-14"></g>
            <path d="M84.381,55.9371 L176.254,105.1431 C176.254,105.1431 183.48,107.4441 191.349,92.4261 C199.218,77.4071 204.394,64.7001 214.451,69.2411 C224.51,73.7811 228.538,78.6261 216.449,100.4461 C204.36,122.2651 201.733,127.6161 187.59,131.4251 C173.447,135.2341 154.897,123.4741 154.897,123.4741 L137.302,158.6241 L140.323,186.1051 C140.323,186.1051 163.598,183.9791 164.387,215.8841 L114.499,224.0001 L104.865,166.5301 C104.865,166.5301 99.082,141.0421 77.08,151.1561 C55.078,161.2701 23.441,177.2131 23.441,177.2131 L0,129.7101 C0,129.7101 27.073,110.1171 39.559,133.8871 L64.389,121.4871 L83.217,85.2431 C83.217,85.2431 37.793,68.1871 63.941,26.8241 L74.754,6.9391 C74.754,6.9391 81.896,-2.8409 90.656,2.6831 C99.417,8.2081 97.201,16.6391 97.201,16.6391 L81.012,48.7061 C81.012,48.7061 78.991,52.8691 84.381,55.9371" id="Fill-13" fill="#FEFEFE" mask="url(#mask-2)"></path>
        </g>
        <path d="M86.215,36.1882 L64.981,23.9912 C62.978,22.8412 62.281,20.2622 63.431,18.2602 C64.581,16.2572 67.16,15.5612 69.162,16.7102 L90.398,28.9082 C92.4,30.0582 93.097,32.6372 91.946,34.6392 C90.796,36.6412 88.217,37.3382 86.215,36.1882" id="Fill-16" fill="#00A69A"></path>
        <path d="M213.7082,104.2981 L192.4742,92.1011 C190.4712,90.9511 189.7732,88.3721 190.9242,86.3701 C192.0742,84.3681 194.6532,83.6711 196.6552,84.8201 L217.8902,97.0181 C219.8932,98.1681 220.5892,100.7471 219.4392,102.7491 C218.2892,104.7511 215.7102,105.4481 213.7082,104.2981" id="Fill-18" fill="#00A69A"></path>
        <path d="M77.0324,152.6023 L59.5954,121.8733 C58.4554,119.8643 59.1664,117.2893 61.1744,116.1493 C63.1824,115.0103 65.7584,115.7213 66.8974,117.7293 L84.3354,148.4583 C85.4744,150.4673 84.7634,153.0423 82.7564,154.1823 C80.7474,155.3213 78.1724,154.6103 77.0324,152.6023" id="Fill-20" fill="#00A69A"></path>
        <path d="M138.3097,164.9285 L103.0037,166.3155 C100.6977,166.4065 98.7357,164.5925 98.6447,162.2855 C98.5537,159.9785 100.3677,158.0165 102.6747,157.9255 L137.9797,156.5385 C140.2877,156.4485 142.2487,158.2615 142.3397,160.5695 C142.4297,162.8765 140.6167,164.8385 138.3097,164.9285" id="Fill-22" fill="#00A69A"></path>
        <polygon id="Fill-24" fill="#00A69A" points="132.2443 132.8103 89.7613 110.4583 102.0563 87.0913 144.5383 109.4433"></polygon>
    </g>
</svg>