<?xml version="1.0" encoding="UTF-8"?>
<svg width="894px" height="331px" viewBox="0 0 894 331" version="1.1" xmlns="http://www.w3.org/2000/svg" xmlns:xlink="http://www.w3.org/1999/xlink">
    <!-- Generator: Sketch 50.2 (55047) - http://www.bohemiancoding.com/sketch -->
    <title>Artboard 1</title>
    <desc>Created with Sketch.</desc>
    <defs></defs>
    <g id="Artboard-1" stroke="none" stroke-width="1" fill="none" fill-rule="evenodd">
        <polygon id="Fill-1" fill="#FEFEFE" points="875.1915 170.3182 864.8465 169.7462 870.6855 178.3042 866.9445 187.9652 876.8885 185.0572 884.9205 191.5992 885.2285 181.2452 893.9325 175.6272 884.1785 172.1352 881.5265 162.1212"></polygon>
        <polygon id="Fill-2" fill="#FEFEFE" points="739.8702 309.3457 729.5652 308.2797 734.9872 317.1077 730.7902 326.5787 740.8602 324.1497 748.5702 331.0687 749.3722 320.7407 758.3352 315.5457 748.7602 311.5907 746.5892 301.4617"></polygon>
        <polygon id="Fill-3" fill="#FEFEFE" points="383.6044 146.7746 382.4894 157.0746 390.3424 163.8316 380.2024 165.9536 376.2034 175.5106 371.0514 166.5226 360.7264 165.6716 367.6814 157.9946 365.3004 147.9126 374.7514 152.1546"></polygon>
        <polygon id="Fill-4" fill="#FEFEFE" points="496.7091 0.0004 493.7481 9.9284 483.8921 13.1174 492.4191 19.0004 492.4061 29.3604 500.6371 23.0694 510.4851 26.2824 507.0451 16.5104 513.1451 8.1364 502.7881 8.3884"></polygon>
        <polygon id="Fill-5" fill="#FEFEFE" points="656.2468 154.7565 646.5628 151.0765 638.0408 156.9665 638.5488 146.6195 630.3128 140.3355 640.3108 137.6205 643.7428 127.8465 649.4138 136.5155 659.7708 136.7585 653.2778 144.8315"></polygon>
        <polygon id="Fill-6" fill="#FEFEFE" points="114.4299 97.8617 106.4479 104.4657 107.3639 114.7857 98.6159 109.2347 89.0849 113.2947 91.6609 103.2597 84.8549 95.4497 95.1939 94.7987 100.5179 85.9117 104.3329 95.5437"></polygon>
        <g id="Group-17" transform="translate(0.000000, 7.069000)" fill="#FEFEFE">
            <path d="M857.5099,32.5149 C857.5099,35.0059 855.6249,37.0249 853.3009,37.0249 C850.9759,37.0249 849.0909,35.0059 849.0909,32.5149 C849.0909,30.0239 850.9759,28.0049 853.3009,28.0049 C855.6249,28.0049 857.5099,30.0239 857.5099,32.5149" id="Fill-7"></path>
            <path d="M293.5078,4.989 C293.5078,7.48 291.6228,9.499 289.2988,9.499 C286.9738,9.499 285.0888,7.48 285.0888,4.989 C285.0888,2.498 286.9738,0.479 289.2988,0.479 C291.6228,0.479 293.5078,2.498 293.5078,4.989" id="Fill-9"></path>
            <path d="M8.419,119.0244 C8.419,121.5154 6.534,123.5344 4.21,123.5344 C1.885,123.5344 0,121.5154 0,119.0244 C0,116.5334 1.885,114.5144 4.21,114.5144 C6.534,114.5144 8.419,116.5334 8.419,119.0244" id="Fill-11"></path>
            <path d="M244.3546,160.3132 C244.3546,162.8042 242.4696,164.8232 240.1456,164.8232 C237.8206,164.8232 235.9356,162.8042 235.9356,160.3132 C235.9356,157.8222 237.8206,155.8032 240.1456,155.8032 C242.4696,155.8032 244.3546,157.8222 244.3546,160.3132" id="Fill-13"></path>
            <path d="M627.7499,216.7532 C627.7499,219.2442 625.8649,221.2632 623.5409,221.2632 C621.2159,221.2632 619.3309,219.2442 619.3309,216.7532 C619.3309,214.2622 621.2159,212.2432 623.5409,212.2432 C625.8649,212.2432 627.7499,214.2622 627.7499,216.7532" id="Fill-15"></path>
        </g>
    </g>
</svg>