<?xml version="1.0" encoding="UTF-8"?>
<svg width="879px" height="260px" viewBox="0 0 879 260" version="1.1" xmlns="http://www.w3.org/2000/svg" xmlns:xlink="http://www.w3.org/1999/xlink">
    <!-- Generator: Sketch 50.2 (55047) - http://www.bohemiancoding.com/sketch -->
    <title>Artboard 1</title>
    <desc>Created with Sketch.</desc>
    <defs></defs>
    <g id="Artboard-1" stroke="none" stroke-width="1" fill="none" fill-rule="evenodd">
        <polygon id="Fill-1" fill="#FEFEFE" points="782.9692 46.6023 772.7452 44.9333 765.5732 52.4103 764.0012 42.1703 754.6752 37.6603 763.9272 33.0013 765.3342 22.7373 772.6252 30.0973 782.8212 28.2633 778.0742 37.4713"></polygon>
        <polygon id="Fill-2" fill="#FEFEFE" points="801.5732 191.1499 800.4922 180.8469 791.3922 175.8969 800.8562 171.6839 802.7522 161.4999 809.6832 169.1999 819.9552 167.8559 814.7742 176.8269 819.2262 186.1809 809.0932 184.0249"></polygon>
        <polygon id="Fill-3" fill="#FEFEFE" points="556.4291 112.2322 546.1991 113.8682 541.7471 123.2222 537.0311 113.9982 526.7581 112.6552 534.0731 105.3192 532.1771 95.1342 541.4141 99.8242 550.5141 94.8732 548.9081 105.1072"></polygon>
        <polygon id="Fill-4" fill="#FEFEFE" points="33.847 185.2171 38.118 194.6551 48.314 196.4881 40.657 203.4661 42.065 213.7301 33.062 208.6041 23.736 213.1151 25.829 202.9691 18.657 195.4931 28.953 194.3481"></polygon>
        <polygon id="Fill-5" fill="#FEFEFE" points="75.0276 0.0006 66.2346 5.4776 56.7376 1.3376 59.2286 11.3936 52.3586 19.1476 62.6916 19.8856 67.9416 28.8156 71.8366 19.2156 81.9526 16.9816 74.0266 10.3106"></polygon>
        <polygon id="Fill-6" fill="#FEFEFE" points="272.7647 53.6275 262.5537 55.3755 258.2047 64.7775 253.3867 55.6065 243.1007 54.3755 250.3347 46.9595 248.3267 36.7965 257.6147 41.3845 266.6597 36.3345 265.1667 46.5855"></polygon>
        <g id="Group-19" transform="translate(0.000000, 0.070000)" fill="#FEFEFE">
            <path d="M649.1003,47.0799 C649.1003,49.5709 647.2153,51.5899 644.8903,51.5899 C642.5663,51.5899 640.6813,49.5709 640.6813,47.0799 C640.6813,44.5889 642.5663,42.5699 644.8903,42.5699 C647.2153,42.5699 649.1003,44.5889 649.1003,47.0799" id="Fill-7"></path>
            <path d="M879.4147,255.4898 C879.4147,257.9808 877.5297,259.9998 875.2047,259.9998 C872.8807,259.9998 870.9957,257.9808 870.9957,255.4898 C870.9957,252.9988 872.8807,250.9798 875.2047,250.9798 C877.5297,250.9798 879.4147,252.9988 879.4147,255.4898" id="Fill-9"></path>
            <path d="M435.0693,52.9784 C435.0693,55.4694 433.1843,57.4884 430.8603,57.4884 C428.5353,57.4884 426.6503,55.4694 426.6503,52.9784 C426.6503,50.4874 428.5353,48.4684 430.8603,48.4684 C433.1843,48.4684 435.0693,50.4874 435.0693,52.9784" id="Fill-11"></path>
            <path d="M171.6077,20.9425 C171.6077,23.4335 169.7227,25.4525 167.3987,25.4525 C165.0737,25.4525 163.1887,23.4335 163.1887,20.9425 C163.1887,18.4515 165.0737,16.4325 167.3987,16.4325 C169.7227,16.4325 171.6077,18.4515 171.6077,20.9425" id="Fill-13"></path>
            <path d="M140.1497,188.6414 C140.1497,191.1324 138.2647,193.1514 135.9407,193.1514 C133.6157,193.1514 131.7307,191.1324 131.7307,188.6414 C131.7307,186.1504 133.6157,184.1314 135.9407,184.1314 C138.2647,184.1314 140.1497,186.1504 140.1497,188.6414" id="Fill-15"></path>
            <path d="M8.419,5.2135 C8.419,7.7045 6.534,9.7235 4.21,9.7235 C1.885,9.7235 0,7.7045 0,5.2135 C0,2.7225 1.885,0.7035 4.21,0.7035 C6.534,0.7035 8.419,2.7225 8.419,5.2135" id="Fill-17"></path>
        </g>
    </g>
</svg>